HIERARCHY
ROOT Hips
{
  OFFSET 90.7885 88.945 -76.2838
  CHANNELS 6 Xposition Yposition Zposition Zrotation Xrotation Yrotation
  JOINT LeftUpLeg
  {
    OFFSET 8.64259 1.95398 -2.38835
    CHANNELS 3 Zrotation Xrotation Yrotation
    JOINT LeftLeg
    {
      OFFSET 43.7702 0 0
      CHANNELS 3 Zrotation Xrotation Yrotation
      JOINT LeftFoot
      {
        OFFSET 40.6238 0 0
        CHANNELS 3 Zrotation Xrotation Yrotation
        JOINT LeftToeBase
        {
          OFFSET 12.7242 0 0
          CHANNELS 3 Zrotation Xrotation Yrotation
          End Site
          {
            OFFSET 0 0 0
          }
        }
      }
    }
  }
  JOINT RightUpLeg
  {
    OFFSET -8.2249 1.95398 -2.59336
    CHANNELS 3 Zrotation Xrotation Yrotation
    JOINT RightLeg
    {
      OFFSET 43.5653 0 0
      CHANNELS 3 Zrotation Xrotation Yrotation
      JOINT RightFoot
      {
        OFFSET 40.6238 0 0
        CHANNELS 3 Zrotation Xrotation Yrotation
        JOINT RightToeBase
        {
          OFFSET 12.7242 0 0
          CHANNELS 3 Zrotation Xrotation Yrotation
          End Site
          {
            OFFSET 0 0 0
          }
        }
      }
    }
  }
  JOINT Spine
  {
    OFFSET 0.165834 0.87714 6.61349
    CHANNELS 3 Zrotation Xrotation Yrotation
    JOINT Spine1
    {
      OFFSET 7.38963 1.71661e-005 0
      CHANNELS 3 Zrotation Xrotation Yrotation
      JOINT Spine2
      {
        OFFSET 11.9445 1.14441e-005 0
        CHANNELS 3 Zrotation Xrotation Yrotation
        JOINT Spine3
        {
          OFFSET 14.7254 4.19617e-005 0
          CHANNELS 3 Zrotation Xrotation Yrotation
          JOINT Spine4
          {
            OFFSET 10.9679 0 0
            CHANNELS 3 Zrotation Xrotation Yrotation
            JOINT RightShoulder
            {
              OFFSET 2.46616 -1.6653 3.69651
              CHANNELS 3 Zrotation Xrotation Yrotation
              JOINT RightArm
              {
                OFFSET 13.0012 0 0
                CHANNELS 3 Zrotation Xrotation Yrotation
                JOINT RightForeArm
                {
                  OFFSET 28.7848 1.52588e-005 0
                  CHANNELS 3 Zrotation Xrotation Yrotation
                  JOINT RightHand
                  {
                    OFFSET 26.5688 1.52588e-005 0
                    CHANNELS 3 Zrotation Xrotation Yrotation
                    End Site
                    {
                      OFFSET 0 0 0
                    }
                  }
                }
              }
            }
            JOINT LeftShoulder
            {
              OFFSET 2.38034 -1.29275 -3.7523
              CHANNELS 3 Zrotation Xrotation Yrotation
              JOINT LeftArm
              {
                OFFSET 16.3182 6.10352e-005 0
                CHANNELS 3 Zrotation Xrotation Yrotation
                JOINT LeftForeArm
                {
                  OFFSET 27.0901 0 0
                  CHANNELS 3 Zrotation Xrotation Yrotation
                  JOINT LeftHand
                  {
                    OFFSET 24.5451 1.52588e-005 0
                    CHANNELS 3 Zrotation Xrotation Yrotation
                    End Site
                    {
                      OFFSET 0 0 0
                    }
                  }
                }
              }
            }
            JOINT Neck
            {
              OFFSET 5.0226 -0.0266342 0
              CHANNELS 3 Zrotation Xrotation Yrotation
              JOINT Head
              {
                OFFSET 6.69363 2.86102e-005 0
                CHANNELS 3 Zrotation Xrotation Yrotation
                End Site
                {
                  OFFSET 0 0 0
                }
              }
            }
          }
        }
      }
    }
  }
}
MOTION
Frames:	18
Frame Time:	0.0416667
-153.041 76.3539 -153.677 -67.0659 -68.2536 -67.0074 -177.773 62.7195 129.409 -74.0656 11.7255 0.680304 82.7719 9.52614 -1.73871 29.4714 -2.30838 3.32624 176.497 41.9677 62.8424 -67.3222 -22.4935 -4.51311 84.7452 -11.8971 2.91618 40.2676 0.160863 -4.10872 0.570186 9.59181 -90.8293 7.69312 0.777754 -1.6773 -3.97873 0.703167 -1.7099 -26.5095 1.24585 -1.3661 -6.49688 1.24584 -1.36609 85.8728 -25.7245 -117.084 22.3297 -27.9596 -14.9757 -31.0709 -9.52396 -72.2879 -29.477 1.98869 -20.7384 -89.6806 -48.9654 78.9867 -3.03079 30.7612 -5.75849 23.1865 -17.8104 -96.8632 6.38023 -1.03476 -16.6611 40.7538 2.31335 1.50871 -10.0377 1.2799 1.93201 
-148.039 77.6472 -148.927 -66.2537 -72.9995 -65.222 -174.381 60.5803 123.42 -70.5158 17.2613 0.0817686 78.2229 7.75572 -2.37915 33.0442 -2.95473 3.91813 173.916 32.4425 61.5914 -58.0077 -21.5719 -6.47984 77.9019 -8.75094 3.12121 44.5996 0.487545 -7.45176 0.60791 9.42986 -90.7239 8.01744 0.89653 -1.48039 -3.6541 0.830509 -1.5184 -26.1873 1.29997 -1.14255 -6.17465 1.29997 -1.14256 86.1113 -25.4795 -116.733 26.969 -25.7478 -10.811 -29.273 -7.98225 -74.5062 -28.4948 2.23962 -21.6227 -88.8717 -43.8853 79.1422 6.8515 32.4328 -14.5131 20.3062 -18.8951 -98.7463 7.21963 -1.06928 -15.9632 36.7963 -1.35335 -2.66771 -8.80888 -0.252135 3.23523 
-142.204 80.9609 -143.072 -58.3962 -77.8023 -54.2703 -172.394 58.7346 117.41 -71.4282 18.0239 -0.307665 75.4894 7.04578 -1.70489 28.1935 -1.34971 2.01266 170.952 19.9418 63.9222 -42.5776 -19.5103 -8.03994 60.3397 -1.79167 3.96186 51.5522 0.0070187 -9.69289 0.491257 9.05226 -91.01 8.77187 0.531429 -2.03048 -2.90062 0.441568 -2.05188 -25.4262 1.11702 -1.77703 -5.41357 1.11702 -1.77703 86.8041 -25.9404 -115.058 30.2289 -24.392 -4.78187 -28.4122 -5.24117 -77.9407 -26.6548 2.7131 -24.2894 -88.2078 -38.4516 78.9795 13.707 31.6591 -25.6647 19.1977 -19.0563 -98.2541 7.01749 -1.03291 -15.7318 30.9583 -4.08973 -8.47739 -8.41469 -0.765021 5.88912 
-135.101 84.273 -136.206 -37.5097 -80.4864 -30.8678 -171.531 54.4705 111.38 -70.0361 15.9097 0.643816 78.3432 8.44612 -2.46948 29.6042 -2.24899 3.23063 170.705 13.2571 66.7255 -37.1574 -16.0365 -10.4469 56.6557 0.775766 -0.347744 24.9168 1.19976 -2.4227 0.136429 8.54124 -91.3494 9.77974 -0.33894 -2.64725 -1.89382 -0.45508 -2.62978 -24.4077 0.472048 -2.62678 -4.39503 0.472043 -2.62679 88.1404 -26.3981 -112.083 30.3397 -25.0741 0.109048 -29.8491 -1.66837 -82.0283 -23.6112 2.83233 -27.5881 -88.2342 -34.1254 77.857 16.1979 29.2053 -31.2289 16.7143 -18.7175 -99.7106 7.87265 -1.35136 -18.3691 22.3863 -4.41924 -15.0764 -7.94992 0.267981 9.32442 
-127.866 86.7045 -130.049 -40.4739 -81.5421 -31.9033 -170.531 47.4245 107.202 -69.5672 9.43111 0.524062 83.9192 9.98434 -5.63733 28.2877 -2.02583 3.05039 172.149 12.5109 69.5735 -43.1265 -20.5097 -10.7058 63.4609 -2.18296 -4.21595 14.1427 -0.521289 3.58424 0.21499 8.50547 -91.6616 9.84652 -0.324736 -3.27057 -1.82845 -0.468306 -3.25314 -24.3314 0.672673 -3.21713 -4.31877 0.672672 -3.21715 91.1347 -24.612 -106.558 32.0964 -27.182 2.02646 -30.9139 3.11758 -86.2663 -19.3132 2.15711 -27.8018 -88.2023 -30.0647 76.7674 17.3958 24.4542 -32.6642 19.7844 -19.4955 -101.985 9.95364 -1.47658 -17.1535 18.6736 -1.86872 -13.8015 -8.1578 1.81896 10.0765 
-120.027 88.7773 -124.923 -59.9704 -79.3483 -51.3455 -167.933 39.2735 101.285 -66.6574 2.77967 -1.95575 86.9483 10.9827 -4.36349 28.94 -0.997939 1.4106 173.429 19.8159 71.4484 -53.1283 -19.4915 -7.29292 65.7753 -3.54183 -3.95417 14.5159 -0.590974 3.64619 0.273882 8.57801 -91.7535 9.70093 -0.246775 -3.45857 -1.97455 -0.398655 -3.44438 -24.4741 0.803459 -3.37308 -4.46142 0.803461 -3.37309 91.6048 -23.7504 -105.889 30.862 -29.2974 2.51982 -27.8664 6.52115 -91.2679 -15.3569 1.88059 -29.05 -87.5906 -30.1204 77.9502 15.9555 23.3486 -24.8541 17.5405 -19.0728 -104.746 8.04799 -1.03887 -14.7694 17.9788 4.5686 -7.25681 -10.5207 5.88536 9.46699 
-111.883 91.2233 -119.768 -69.2844 -71.8989 -62.9744 -163.047 31.6259 95.4623 -59.5477 0.391655 -8.45305 84.3646 10.2386 -1.41665 29.9182 3.15572 -4.90023 175.753 31.5402 74.5731 -61.4657 -16.0149 -4.65909 73.1921 -7.34087 -5.27169 15.4233 -0.329677 3.07724 0.354072 8.4458 -91.4773 9.97391 0.0342626 -2.93527 -1.70035 -0.0948941 -2.93394 -24.2108 0.914505 -2.7895 -4.19814 0.914508 -2.7895 90.4751 -23.9573 -108.272 26.7709 -34.9435 0.656585 -26.7567 10.1998 -91.3315 -15.2081 2.09048 -29.1177 -86.4048 -33.1762 80.9699 10.7372 25.1246 -10.4682 17.6806 -19.6216 -108.241 8.96678 -1.17212 -15.2601 16.498 13.1529 1.02306 -13.0027 11.8241 7.33053 
-104.275 93.2416 -114.879 -70.3286 -65.1651 -67.4331 -159.686 27.7068 91.7521 -51.0033 9.59994 -14.5714 69.9579 4.21343 1.02579 37.0731 2.80424 -6.52198 175.356 40.8141 79.8295 -63.605 -15.539 -2.002 74.543 -7.52167 -2.3765 18.8556 -0.839808 3.55036 0.49719 8.43227 -90.9906 10.0114 0.540285 -2.01068 -1.66102 0.4513 -2.0325 -24.1871 1.11952 -1.75548 -4.17449 1.11953 -1.75547 88.7678 -26.1773 -110.883 20.9606 -38.404 -2.29244 -31.2044 10.7202 -88.6271 -18.6039 2.45283 -28.5523 -86.2302 -37.2629 82.1595 5.00584 26.985 1.24053 20.2385 -21.3114 -109.735 7.99612 -0.928023 -13.538 17.8714 19.521 7.20614 -14.4752 16.3017 6.0141 
-96.8466 93.2525 -110.001 -67.1149 -63.4971 -67.533 -159.633 29.5553 89.087 -52.6451 18.3725 -13.5045 61.6244 0.618106 -6.1598 42.7596 -3.69547 4.1232 171.332 45.2816 84.6253 -61.8985 -21.3206 1.00451 72.4061 -6.00935 0.031431 26.1374 -0.737713 2.22994 0.536662 8.47006 -90.6167 9.93671 0.789474 -1.28806 -1.73466 0.732013 -1.32157 -24.2684 1.14008 -0.991276 -4.25575 1.14007 -0.991284 87.0306 -26.7363 -114.18 18.9718 -36.6779 -1.19894 -33.812 9.06166 -88.7279 -21.161 2.67344 -28.2195 -87.466 -39.9477 80.5948 -2.43155 27.4695 5.21445 26.2912 -21.8587 -104.911 7.5732 -0.991713 -14.6994 20.1212 22.1017 9.52644 -15.0347 17.9665 5.69206 
-89.8333 92.3247 -105.159 -62.9113 -66.3001 -65.3465 -160.246 35.0122 89.1948 -67.1847 9.15011 -8.42211 71.4772 4.39732 -2.63003 34.9113 -1.22127 0.800564 168.011 44.1532 86.5576 -57.3652 -27.1494 3.16642 71.2389 -5.26055 1.97314 32.5804 -0.43749 0.171625 0.423616 8.61963 -90.4104 9.63655 0.659187 -0.86522 -2.03454 0.620476 -0.893389 -24.5697 0.888749 -0.627107 -4.55705 0.888751 -0.627108 86.5713 -27.0585 -114.945 17.0696 -35.171 -2.78413 -30.0929 8.68857 -89.8828 -20.5636 2.58979 -27.0028 -88.3943 -42.996 79.7127 -9.12554 28.4191 3.88662 27.9198 -19.434 -98.4767 11.3396 -1.25647 -14.0301 21.6518 22.2171 8.07883 -14.7332 18.2441 7.01293 
-83.7879 90.6685 -100.142 -63.8302 -68.9832 -66.5871 -160.878 40.4194 95.5393 -75.9747 0.593172 -4.64135 77.4571 7.1093 0.340884 31.3645 2.86497 -4.83221 169.385 37.0725 86.2923 -53.8824 -13.8996 1.77801 79.1928 -8.61504 5.41962 27.4851 0.0511226 0.339165 0.60048 8.79317 -90.2926 9.28913 1.06631 -0.656465 -2.38161 1.03639 -0.702769 -24.9196 1.2143 -0.305621 -4.90691 1.21429 -0.305625 87.1488 -27.7991 -113.409 15.6829 -35.9331 -6.72445 -33.1619 6.73311 -86.6539 -24.6053 3.14276 -27.4352 -89.4401 -48.572 79.2688 -13.0715 26.1472 3.46457 29.7046 -15.705 -91.9881 9.76109 -0.922878 -12.29 19.7816 20.7366 6.54255 -13.4041 17.4657 7.27515 
-77.8336 87.9451 -95.5622 -61.2052 -70.8523 -65.0884 -163.381 47.3464 103.983 -77.0175 -4.92261 -2.89157 78.365 7.94714 1.31631 31.8429 3.59839 -6.13436 173.797 36.7439 81.4387 -59.9886 -1.52127 -1.65768 90.2828 -13.6746 4.80561 22.997 1.75418 -2.38197 0.835623 8.77582 -89.9943 9.32585 1.66901 -0.113361 -2.34401 1.6624 -0.186746 -24.8877 1.6259 0.393627 -4.87503 1.6259 0.393621 87.8515 -28.3597 -111.731 16.1667 -35.6165 -11.447 -31.5062 6.94302 -86.5714 -24.345 2.85264 -25.4386 -89.4666 -53.9555 80.3018 -15.9079 19.7394 8.17686 28.0564 -14.1857 -93.1289 7.40033 -1.06919 -15.8269 19.3433 19.2041 5.1312 -13.4955 16.434 7.08968 
-71.5166 85.7078 -89.6705 -57.3954 -72.6588 -59.4384 -169.543 53.3784 116.233 -71.7921 -5.95578 -2.20068 82.2673 9.27875 -0.225818 28.3344 2.86199 -4.07592 172.972 34.8529 76.6748 -60.8674 -1.17728 -2.31591 89.534 -13.379 6.38132 32.2793 1.76867 -5.41281 0.943134 8.87298 -89.9673 9.12926 1.89579 -0.069615 -2.54033 1.89091 -0.153023 -25.086 1.82905 0.503582 -5.0734 1.82903 0.503546 87.537 -27.0307 -113.002 17.8489 -31.4701 -16.0618 -33.9107 7.18147 -88.9113 -24.3925 2.51737 -24.7117 -86.538 -52.9421 84.3692 -22.7486 10.0831 16.1958 27.3857 -14.457 -100.241 5.11344 -0.710876 -13.8312 22.2773 18.6116 4.9634 -13.862 15.7931 6.06325 
-64.5784 85.7524 -82.3867 -53.6016 -77.7096 -53.9957 -173.276 52.7417 122.083 -59.5414 -1.77108 -2.11479 77.8945 8.2835 0.672909 28.9134 2.11118 -3.09683 166.957 26.6519 71.1183 -53.4357 -8.18357 -1.74593 82.3787 -10.9734 3.49199 37.8365 1.25457 -6.48115 0.901171 8.88454 -90.0352 9.10673 1.78175 -0.195656 -2.56301 1.77141 -0.273925 -25.1077 1.75816 0.349052 -5.09509 1.75816 0.349044 86.6005 -28.8355 -113.992 19.3882 -28.4826 -15.2926 -32.1409 5.45921 -90.8981 -20.3754 2.1934 -26.5801 -85.8912 -50.2398 84.9298 -25.4459 10.9788 19.5061 27.6523 -15.0847 -100.872 1.04193 -0.337227 -18.5562 18.8402 15.516 0.0507819 -14.9848 14.166 7.99289 
-56.0379 87.5597 -74.0675 -38.2542 -82.0152 -37.9536 -173.391 48.8265 118.494 -50.9806 3.70482 -1.52873 75.492 7.47885 -0.324111 27.295 -1.24539 1.94893 165.875 16.7089 66.2687 -41.9995 -13.0044 -4.45298 62.29 -2.40491 2.79348 48.9469 0.379524 -9.25656 0.818934 8.77348 -90.1212 9.33094 1.57871 -0.356733 -2.3391 1.5615 -0.425884 -24.8821 1.61292 0.134356 -4.86943 1.61292 0.134357 86.5329 -31.5008 -112.856 21.3482 -25.4395 -10.7991 -27.25 4.25715 -90.8328 -20.6462 2.59575 -26.8346 -87.3873 -48.6121 82.3997 -22.6889 19.8553 14.1596 29.324 -15.9436 -97.3801 -5.11072 0.436895 -23.0686 10.7944 11.0182 -6.98416 -14.1971 11.337 10.3345 
-46.1505 89.4929 -64.9815 -22.8243 -83.6528 -20.1866 -170.869 42.3803 112.787 -48.3797 8.96349 -1.19411 69.5812 5.22153 -3.34715 29.0962 -0.840567 1.09544 171.762 8.58232 68.1117 -39.4593 -14.1865 -12.3955 56.0604 1.37308 -0.195497 20.1566 1.78898 -2.34184 0.739644 8.62903 -90.4169 9.62044 1.28638 -0.926753 -2.05024 1.24435 -0.982477 -24.5896 1.50542 -0.497247 -4.57694 1.50542 -0.49724 88.9938 -31.3288 -108.207 25.0871 -23.4952 -4.75465 -22.1919 2.19895 -86.8076 -22.0921 2.9517 -26.071 -89.8201 -47.6943 78.4984 -11.9072 19.3866 2.71973 29.7917 -15.2671 -95.7878 6.02051 -0.948524 -16.083 1.94588 7.76591 -13.5253 -14.5792 8.65869 10.5665 
-36.1698 89.124 -57.6219 -18.8089 -81.7054 -14.7186 -173.891 38.401 108.309 -52.9443 2.81206 1.18751 76.9293 7.60134 -4.50501 36.3791 -4.36386 5.95801 179.849 10.9968 69.6935 -52.3772 -23.2048 -16.9959 64.7999 -3.22622 -4.75127 12.388 -0.0561736 3.02864 0.391428 8.29883 -90.6772 10.2771 0.470368 -1.38533 -1.39456 0.408959 -1.40468 -23.9258 0.864949 -1.17995 -3.91317 0.864948 -1.17996 90.6903 -30.1977 -105.317 26.4597 -20.492 2.03899 -20.5288 -4.04079 -78.7018 -26.5674 3.6722 -26.2877 -90.5145 -48.0004 77.5046 -1.61396 12.3133 -8.95138 26.8207 -14.3225 -97.8381 9.49567 -1.09726 -14.0328 -4.63516 6.6505 -15.1387 -15.2417 6.88978 11.1978 
-26.1407 87.4953 -51.52 -47.4046 -79.8476 -41.7811 -171.996 36.1033 103.1 -63.5552 -7.6923 0.584892 89.9918 10.8191 -8.05185 35.0896 -5.21816 7.48585 -172.988 21.1284 70.3153 -67.4195 -21.2982 -14.5444 69.4667 -5.54338 -5.96002 14.598 -1.98182 6.04748 0.109468 8.63051 -90.8508 9.60832 -0.16576 -1.67003 -2.06366 -0.239085 -1.66111 -24.5905 0.343744 -1.64267 -4.57781 0.343748 -1.64267 90.1307 -30.5532 -106.292 24.3456 -8.73301 8.30016 -16.9433 -9.2259 -68.288 -24.7514 2.8144 -24.0043 -89.5966 -47.6276 78.8163 5.29275 -2.92344 -19.0582 25.2784 -11.4571 -98.9605 11.0885 -0.957116 -11.6856 -5.37737 7.50333 -14.4574 -14.6067 7.54084 12.181 
